# xmcd
#
# Track frame offsets:
# 150
# 600
# 29638
# 62797
# 95520
# 132448
# 172455
# 201221
# 230630
# 260923
#
# Disc length: 3484 seconds
#
# Revision: 0
# Processed by: cddbd v1.5.1PL0 Copyright (c) Steve Scherf et al.
# Submitted via: Audion 3.0.2 (http://www.panic.com/audion/)
#
DISCID=9a0d9a0a
DTITLE=Hamza Yusuf - Vision of Islam
DYEAR=1900
DGENRE=
TTITLE0=37_HY_VOI04.01
TTITLE1=38_HY_VOI04.02
TTITLE2=39_HY_VOI04.03
TTITLE3=40_HY_VOI04.04
TTITLE4=41_HY_VOI04.05
TTITLE5=42_HY_VOI04.06
TTITLE6=43_HY_VOI04.07
TTITLE7=44_HY_VOI04.08
TTITLE8=45_HY_VOI04.09
TTITLE9=46_HY_VOI04.10
EXTD=
EXTT0=
EXTT1=
EXTT2=
EXTT3=
EXTT4=
EXTT5=
EXTT6=
EXTT7=
EXTT8=
EXTT9=
PLAYORDER=
